<svg width="64" height="64" viewBox="0 0 64 64" fill="none" xmlns="http://www.w3.org/2000/svg">
<path d="M8 57H56C57.8559 56.9979 59.6351 56.2597 60.9474 54.9474C62.2597 53.6351 62.9979 51.8559 63 50C63 49.7348 62.8946 49.4804 62.7071 49.2929C62.5196 49.1054 62.2652 49 62 49H60V17C59.9984 15.4092 59.3658 13.884 58.2409 12.7591C57.116 11.6342 55.5908 11.0016 54 11H52V9.88501C52 9.08936 51.6839 8.3263 51.1213 7.76369C50.5587 7.20108 49.7957 6.88501 49 6.88501H15C14.2044 6.88501 13.4413 7.20108 12.8787 7.76369C12.3161 8.3263 12 9.08936 12 9.88501V11H10C8.40919 11.0016 6.88399 11.6342 5.75911 12.7591C4.63424 13.884 4.00159 15.4092 4 17V49H2C1.73478 49 1.48043 49.1054 1.29289 49.2929C1.10536 49.4804 1 49.7348 1 50C1.00212 51.8559 1.7403 53.6351 3.05259 54.9474C4.36489 56.2597 6.14413 56.9979 8 57ZM54 13C55.0609 13 56.0783 13.4214 56.8284 14.1716C57.5786 14.9217 58 15.9391 58 17V49H56V16C56 15.7348 55.8946 15.4804 55.7071 15.2929C55.5196 15.1054 55.2652 15 55 15H52V13H54ZM26 49H10V17H12V41.885C12 42.6807 12.3161 43.4437 12.8787 44.0063C13.4413 44.5689 14.2044 44.885 15 44.885H49C49.7957 44.885 50.5587 44.5689 51.1213 44.0063C51.6839 43.4437 52 42.6807 52 41.885V17H54V49H38C37.7348 49 37.4804 49.1054 37.2929 49.2929C37.1054 49.4804 37 49.7348 37 50V51H27V50C27 49.7348 26.8946 49.4804 26.7071 49.2929C26.5196 49.1054 26.2652 49 26 49ZM14 14.885H50V41.885C50 42.1502 49.8946 42.4046 49.7071 42.5921C49.5196 42.7797 49.2652 42.885 49 42.885H15C14.7348 42.885 14.4804 42.7797 14.2929 42.5921C14.1054 42.4046 14 42.1502 14 41.885V14.885ZM15 8.88501H49C49.2652 8.88501 49.5196 8.99037 49.7071 9.1779C49.8946 9.36544 50 9.61979 50 9.88501V12.885H14V9.88501C14 9.61979 14.1054 9.36544 14.2929 9.1779C14.4804 8.99037 14.7348 8.88501 15 8.88501ZM6 17C6 15.9391 6.42143 14.9217 7.17157 14.1716C7.92172 13.4214 8.93913 13 10 13H12V15H9C8.73478 15 8.48043 15.1054 8.29289 15.2929C8.10536 15.4804 8 15.7348 8 16V49H6V17ZM25 51V52C25 52.2652 25.1054 52.5196 25.2929 52.7071C25.4804 52.8947 25.7348 53 26 53H38C38.2652 53 38.5196 52.8947 38.7071 52.7071C38.8946 52.5196 39 52.2652 39 52V51H60.9C60.6681 52.1287 60.054 53.1429 59.1614 53.8715C58.2688 54.6002 57.1523 54.9987 56 55H8C6.84775 54.9987 5.73117 54.6002 4.83857 53.8715C3.94596 53.1429 3.33192 52.1287 3.1 51H25Z" fill="white"/>
<path d="M19 32C19 32.2652 19.1054 32.5196 19.2929 32.7071C19.4804 32.8946 19.7348 33 20 33H24C24.2652 33 24.5196 32.8946 24.7071 32.7071C24.8946 32.5196 25 32.2652 25 32V30H48V28H25V26C25 25.7348 24.8946 25.4804 24.7071 25.2929C24.5196 25.1054 24.2652 25 24 25H20C19.7348 25 19.4804 25.1054 19.2929 25.2929C19.1054 25.4804 19 25.7348 19 26V28H16V30H19V32ZM21 27H23V31H21V27ZM31 40C31 40.2652 31.1054 40.5196 31.2929 40.7071C31.4804 40.8946 31.7348 41 32 41H36C36.2652 41 36.5196 40.8946 36.7071 40.7071C36.8946 40.5196 37 40.2652 37 40V38H48V36H37V34C37 33.7348 36.8946 33.4804 36.7071 33.2929C36.5196 33.1054 36.2652 33 36 33H32C31.7348 33 31.4804 33.1054 31.2929 33.2929C31.1054 33.4804 31 33.7348 31 34V36H16V38H31V40ZM33 35H35V39H33V35ZM35 24C35 24.2652 35.1054 24.5196 35.2929 24.7071C35.4804 24.8946 35.7348 25 36 25H40C40.2652 25 40.5196 24.8946 40.7071 24.7071C40.8946 24.5196 41 24.2652 41 24V22H48V20H41V18C41 17.7348 40.8946 17.4804 40.7071 17.2929C40.5196 17.1054 40.2652 17 40 17H36C35.7348 17 35.4804 17.1054 35.2929 17.2929C35.1054 17.4804 35 17.7348 35 18V20H16V22H35V24ZM37 19H39V23H37V19Z" fill="white"/>
</svg>
