<svg width="57" height="56" viewBox="0 0 57 56" fill="none" xmlns="http://www.w3.org/2000/svg">
<path fill-rule="evenodd" clip-rule="evenodd" d="M42.5 42H44.5C46.7092 42 48.5 43.7908 48.5 46V52C48.5 54.2092 46.7092 56 44.5 56H12.5C10.2909 56 8.5 54.2092 8.5 52V46C8.5 43.7908 10.2909 42 12.5 42H14.5V30H6.5V31C6.5 31.5522 6.05228 32 5.5 32H1.5C0.94772 32 0.5 31.5522 0.5 31V27C0.5 26.4478 0.94772 26 1.5 26H5.5C6.05228 26 6.5 26.4478 6.5 27V28H14.5V22C14.5 20.939 14.7065 19.9264 15.0815 19H8.5V6H7.5C6.94772 6 6.5 5.55228 6.5 5V1C6.5 0.44772 6.94772 0 7.5 0H11.5C12.0523 0 12.5 0.44772 12.5 1V5C12.5 5.55228 12.0523 6 11.5 6H10.5V17H16.2546C17.7208 15.1711 19.9736 14 22.5 14H27.5V6H26.5C25.9478 6 25.5 5.55228 25.5 5V1C25.5 0.44772 25.9478 0 26.5 0H30.5C31.0522 0 31.5 0.44772 31.5 1V5C31.5 5.55228 31.0522 6 30.5 6H29.5V14H34.5C37.0264 14 39.2792 15.1711 40.7454 17H46.5V6H45.5C44.9478 6 44.5 5.55228 44.5 5V1C44.5 0.44772 44.9478 0 45.5 0H49.5C50.0522 0 50.5 0.44772 50.5 1V5C50.5 5.55228 50.0522 6 49.5 6H48.5V19H41.9184C42.2934 19.9264 42.5 20.939 42.5 22V28H50.5V27C50.5 26.4478 50.9478 26 51.5 26H55.5C56.0522 26 56.5 26.4478 56.5 27V31C56.5 31.5522 56.0522 32 55.5 32H51.5C50.9478 32 50.5 31.5522 50.5 31V30H42.5V42ZM44.5 44C45.6046 44 46.5 44.8954 46.5 46V52C46.5 53.1046 45.6046 54 44.5 54H12.5C11.3954 54 10.5 53.1046 10.5 52V46C10.5 44.8954 11.3954 44 12.5 44H44.5ZM4.5 30V28H2.5V30H4.5ZM40.5 42H16.5V22C16.5 18.6862 19.1862 16 22.5 16H34.5C37.8138 16 40.5 18.6862 40.5 22V42ZM52.5 28V30H54.5V28H52.5ZM27.5 2V4H29.5V2H27.5ZM46.5 4V2H48.5V4H46.5ZM8.5 2V4H10.5V2H8.5Z" fill="white"/>
</svg>
