<svg width="40" height="40" viewBox="0 0 40 40" fill="none" xmlns="http://www.w3.org/2000/svg">
<rect x="0.5" y="0.5" width="39" height="39" rx="7.5" stroke="white"/>
<path d="M22 20L18.5 22V18L22 20Z" fill="white" stroke="white" stroke-width="1.5" stroke-linecap="round" stroke-linejoin="round"/>
<path d="M10 20.7074V19.2924C10 16.3974 10 14.9494 10.905 14.0184C11.811 13.0864 13.237 13.0464 16.088 12.9654C17.438 12.9274 18.818 12.9004 20 12.9004C21.181 12.9004 22.561 12.9274 23.912 12.9654C26.763 13.0464 28.189 13.0864 29.094 14.0184C30 14.9494 30 16.3984 30 19.2924V20.7074C30 23.6034 30 25.0504 29.095 25.9824C28.189 26.9134 26.764 26.9544 23.912 27.0344C22.562 27.0734 21.182 27.1004 20 27.1004C18.6958 27.0965 17.3916 27.0745 16.088 27.0344C13.237 26.9544 11.811 26.9144 10.905 25.9824C10 25.0504 10 23.6024 10 20.7084V20.7074Z" stroke="white" stroke-width="1.5"/>
</svg>
