<svg width="293" height="80" viewBox="0 0 293 80" fill="none" xmlns="http://www.w3.org/2000/svg">
<path d="M92.3962 63.0382H85.499V16.8969H92.3962V63.0382Z" fill="#07484A" style="fill:#07484A;fill:color(display-p3 0.0275 0.2824 0.2902);fill-opacity:1;"/>
<path d="M102.156 16.8969H108.598L126.231 51.9253L125.386 52.7701V16.8969H131.957V62.9732H125.451L107.882 28.7896L108.728 27.9448V62.9732H102.156V16.8969Z" fill="#07484A" style="fill:#07484A;fill:color(display-p3 0.0275 0.2824 0.2902);fill-opacity:1;"/>
<path d="M160.002 16.8969H165.012L172.82 51.6653L178.806 16.8969H185.768L176.594 63.0382H169.632L162.669 31.3241L155.382 63.0382H148.42L139.245 16.8969H146.207L152.193 51.6653L160.002 16.8969Z" fill="#07484A" style="fill:#07484A;fill:color(display-p3 0.0275 0.2824 0.2902);fill-opacity:1;"/>
<path d="M197.35 61.7385C195.203 60.5687 193.511 58.814 192.34 56.6044C191.169 54.3948 190.583 51.7303 190.583 48.7409V31.1942C190.583 28.1397 191.169 25.5402 192.34 23.3307C193.511 21.1211 195.203 19.4314 197.35 18.1966C199.498 17.0268 202.1 16.377 205.028 16.377C207.956 16.377 210.559 16.9618 212.706 18.1966C214.854 19.3664 216.545 21.1211 217.717 23.3307C218.888 25.5402 219.473 28.2047 219.473 31.1942V48.7409C219.473 51.7303 218.888 54.3948 217.717 56.6044C216.545 58.814 214.854 60.5687 212.706 61.7385C210.559 62.9082 207.956 63.5581 205.028 63.5581C202.1 63.4931 199.498 62.9082 197.35 61.7385ZM208.998 55.7596C210.104 55.1097 211.015 54.1999 211.6 53.0301C212.251 51.8603 212.511 50.4306 212.511 48.8059V31.0642C212.511 29.5045 212.186 28.0748 211.6 26.905C210.95 25.7352 210.104 24.7604 208.998 24.1755C207.891 23.5256 206.525 23.2007 205.028 23.2007C203.532 23.2007 202.165 23.5256 201.059 24.1755C199.953 24.8254 199.042 25.7352 198.457 26.905C197.871 28.0748 197.546 29.5045 197.546 31.0642V48.8059C197.546 50.4306 197.871 51.7953 198.457 53.0301C199.042 54.1999 199.953 55.1747 201.059 55.7596C202.165 56.4095 203.532 56.7344 205.028 56.7344C206.525 56.7344 207.891 56.4095 208.998 55.7596Z" fill="#07484A" style="fill:#07484A;fill:color(display-p3 0.0275 0.2824 0.2902);fill-opacity:1;"/>
<path d="M233.853 61.7385C231.706 60.5687 230.014 58.814 228.843 56.6044C227.672 54.3948 227.086 51.7303 227.086 48.7409V31.1942C227.086 28.1397 227.672 25.5402 228.843 23.3307C230.014 21.1211 231.706 19.4314 233.853 18.1966C236.001 17.0268 238.603 16.377 241.531 16.377C244.46 16.377 247.062 16.9618 249.209 18.1966C251.357 19.3664 253.048 21.1211 254.22 23.3307C255.391 25.5402 255.976 28.2047 255.976 31.1942V48.7409C255.976 51.7303 255.391 54.3948 254.22 56.6044C253.048 58.814 251.357 60.5687 249.209 61.7385C247.062 62.9082 244.46 63.5581 241.531 63.5581C238.538 63.4931 236.001 62.9082 233.853 61.7385ZM245.501 55.7596C246.607 55.1097 247.518 54.1999 248.103 53.0301C248.754 51.8603 249.014 50.4306 249.014 48.8059V31.0642C249.014 29.5045 248.689 28.0748 248.103 26.905C247.453 25.7352 246.607 24.7604 245.501 24.1755C244.394 23.5256 243.028 23.2007 241.531 23.2007C240.035 23.2007 238.668 23.5256 237.562 24.1755C236.456 24.8254 235.545 25.7352 234.96 26.905C234.374 28.0748 234.049 29.5045 234.049 31.0642V48.8059C234.049 50.4306 234.374 51.7953 234.96 53.0301C235.545 54.1999 236.456 55.1747 237.562 55.7596C238.668 56.4095 240.035 56.7344 241.531 56.7344C243.028 56.7344 244.329 56.4095 245.501 55.7596Z" fill="#07484A" style="fill:#07484A;fill:color(display-p3 0.0275 0.2824 0.2902);fill-opacity:1;"/>
<path d="M264.761 16.8969H271.593V63.0382H264.761V16.8969ZM269.055 56.5394H278.555C280.962 56.5394 282.784 55.8895 284.151 54.6548C285.452 53.42 286.168 51.6003 286.168 49.3258V30.6093C286.168 28.3347 285.517 26.515 284.151 25.2803C282.849 24.0455 280.962 23.3956 278.555 23.3956H269.055V16.8969H278.425C281.483 16.8969 284.151 17.4168 286.298 18.5215C288.51 19.6263 290.137 21.186 291.308 23.2657C292.414 25.3453 293 27.8148 293 30.7393V49.1958C293 52.0553 292.414 54.5248 291.308 56.6044C290.137 58.684 288.51 60.2437 286.298 61.3485C284.086 62.4533 281.483 62.9732 278.36 62.9732H268.99V56.5394H269.055Z" fill="#07484A" style="fill:#07484A;fill:color(display-p3 0.0275 0.2824 0.2902);fill-opacity:1;"/>
<path d="M4.42461 0H67.6054C70.0129 0 72.03 1.94963 72.03 4.41917V75.5808C72.03 77.9854 70.0779 80 67.6054 80H4.42461C1.95203 79.935 0 77.9854 0 75.5158V4.41917C0 1.94963 1.95203 0 4.42461 0Z" fill="#07484A" style="fill:#07484A;fill:color(display-p3 0.0275 0.2824 0.2902);fill-opacity:1;"/>
<path fill-rule="evenodd" clip-rule="evenodd" d="M26.1572 35.0935C27.0031 35.1585 27.6538 35.8733 27.6538 36.7831C27.6538 37.693 26.873 38.4728 25.962 38.4728H14.6402L15.356 41.0723C16.2019 44.1918 14.38 45.1666 11.9725 46.3364C9.95535 47.3762 7.28757 48.6759 7.28757 53.485C7.28757 60.2438 12.9485 69.472 14.6402 72.0715H24.6607V46.0114C24.6607 45.8165 24.6607 45.6865 24.7257 45.4915C24.7257 45.4265 24.7257 45.2966 24.7257 45.1666C24.7257 44.2567 25.5065 43.4769 26.4175 43.4769H31.5578V7.01873C31.5578 6.1089 32.3387 5.32905 33.2496 5.32905C34.1605 5.32905 34.9414 6.1089 34.9414 7.01873V35.9383H65.9136C66.8246 35.9383 67.6054 36.7182 67.6054 37.628V45.2966V73.8262C67.6054 74.736 66.8246 75.5159 65.9136 75.5159C65.0027 75.5159 64.2218 74.736 64.2218 73.8262V51.4704H34.9414V73.7612C34.9414 74.671 34.1605 75.4509 33.2496 75.4509C32.3387 75.4509 31.5578 74.671 31.5578 73.7612V46.9212H28.0442V73.7612C28.0442 74.671 27.2634 75.4509 26.3524 75.4509C26.2874 75.4509 26.2223 75.4509 26.1572 75.4509C26.0921 75.4509 26.0271 75.4509 25.962 75.4509H13.1437C12.2327 75.4509 11.4519 74.671 11.4519 73.7612C11.4519 73.6312 11.4519 73.5013 11.517 73.4363C9.36974 69.9919 3.90405 60.6987 3.90405 53.485C3.90405 46.6613 7.61291 44.7767 10.4108 43.3469C11.4519 42.827 12.2327 42.4371 12.1026 41.9172L10.8663 37.3031C10.8012 37.1081 10.8012 36.9781 10.8012 36.7831C10.8012 35.8733 11.582 35.0935 12.493 35.0935H15.421C14.6402 33.7937 13.7943 32.364 13.0786 30.9342C11.7772 28.5297 10.541 26.0602 9.63001 23.8506C8.19852 20.5362 7.28757 17.6767 6.96224 15.4671C6.70197 13.9724 6.6369 12.6727 6.8321 11.6979C7.09237 10.3331 7.74305 9.35829 8.78413 8.90338C8.97934 8.83839 9.23961 8.7734 9.43481 8.70841C11.0615 8.44846 13.0786 9.68323 15.1608 12.3477C15.8114 13.1276 16.3971 14.1024 17.0477 15.1422C17.2429 12.8026 17.5683 10.853 18.0888 9.2933C18.9998 6.23888 20.5614 4.54919 22.5134 4.54919C24.4004 4.54919 25.962 6.23888 26.938 9.2933C27.6538 11.5679 28.1092 14.8173 28.1092 18.8465C28.1092 21.9009 27.849 25.4753 27.3935 28.7247C27.0682 31.0642 26.6127 33.3388 26.1572 35.0935ZM13.5991 48.156C12.7533 48.9359 12.0375 49.8457 11.4519 51.0155C10.9964 51.9903 10.7362 53.1601 10.7362 54.4598C10.7362 60.6337 16.5272 69.0171 16.5272 69.0821C16.8525 69.602 17.5683 69.732 18.0888 69.407C18.6094 69.0821 18.7395 68.3672 18.4142 67.8473C18.4142 67.8473 13.0135 59.9838 13.0135 54.5248C13.0135 53.55 13.2087 52.7702 13.5341 52.0553C13.9245 51.2104 14.5101 50.4956 15.1608 49.9107C15.6162 49.5208 15.6162 48.8059 15.2258 48.351C14.8354 47.8961 14.0546 47.7661 13.5991 48.156ZM34.9414 49.2608H64.2218V46.9212H34.9414V49.2608ZM34.9414 43.5419H64.2218V39.2527H34.9414V43.5419ZM18.4792 33.7287C18.1539 32.234 17.8285 30.4793 17.5683 28.6597C17.308 26.6451 17.1128 24.5005 16.9827 22.4858C15.4861 18.9765 13.9245 16.247 12.493 14.4273C11.3218 12.9326 10.4759 12.1528 9.95535 12.0878C9.95535 12.0878 10.0204 12.1528 10.0204 12.3477C9.89028 12.9326 9.95535 13.8425 10.1506 14.9472C10.4759 16.8969 11.3218 19.4964 12.6231 22.5508C13.5341 24.6954 14.7053 27.035 15.9416 29.3745C16.7875 30.8693 17.6333 32.364 18.4792 33.7287ZM22.3182 35.0935H22.5785C23.1641 33.4038 23.6196 30.9992 24.01 28.2697C24.4004 25.1503 24.6607 21.771 24.6607 18.7815C24.6607 15.1422 24.2703 12.2178 23.6846 10.2031C23.2292 8.70841 22.7737 7.86357 22.4484 7.86357C22.123 7.86357 21.6675 8.70841 21.2121 10.2031C20.6265 12.2178 20.2361 15.0772 20.2361 18.7815C20.2361 21.706 20.4963 25.0853 20.8867 28.1398C21.2771 30.9342 21.7977 33.4038 22.3182 35.0935Z" fill="white" style="fill:white;fill-opacity:1;"/>
</svg>
