<svg width="65" height="64" viewBox="0 0 65 64" fill="none" xmlns="http://www.w3.org/2000/svg">
<path d="M58.475 7.5H28.475C26.269 7.5 24.475 9.294 24.475 11.5V29.74C22.652 29.063 21.255 27.232 19.169 27.5C25.711 22.27 22.004 11.508 13.525 11.5C5.045 11.509 1.339 22.272 7.881 27.5H6.525C4.349 27.491 2.505 29.317 2.525 31.5V39.5C2.525 40.603 3.422 41.5 4.525 41.5H6.525V43.5C6.525 44.237 6.93 44.875 7.525 45.222V53.5C7.525 55.154 8.871 56.5 10.525 56.5H16.525C18.179 56.5 19.525 55.154 19.525 53.5V45.222C20.12 44.875 20.525 44.237 20.525 43.5V34.456C21.7873 35.1531 23.1092 35.7364 24.475 36.199V41.5C24.475 43.706 26.269 45.5 28.475 45.5H42.475V48.5C42.475 48.562 42.5 48.615 42.51 48.673C39.347 49.763 40.096 54.467 43.475 54.5C46.855 54.467 47.603 49.763 44.44 48.673C44.45 48.615 44.475 48.562 44.475 48.5V45.5H58.475C60.681 45.5 62.475 43.706 62.475 41.5V11.5C62.475 9.294 60.681 7.5 58.475 7.5ZM6.525 20.5C6.525 16.64 9.665 13.5 13.525 13.5C22.799 13.852 22.796 27.15 13.525 27.5C9.665 27.5 6.525 24.36 6.525 20.5ZM17.525 53.5C17.525 53.7652 17.4196 54.0196 17.2321 54.2071C17.0446 54.3946 16.7902 54.5 16.525 54.5H15.525V49.5C15.525 49.2348 15.4196 48.9804 15.2321 48.7929C15.0446 48.6054 14.7902 48.5 14.525 48.5C14.2598 48.5 14.0054 48.6054 13.8179 48.7929C13.6304 48.9804 13.525 49.2348 13.525 49.5V54.5H10.525C10.2598 54.5 10.0054 54.3946 9.8179 54.2071C9.63036 54.0196 9.525 53.7652 9.525 53.5V45.5H17.525V53.5ZM25.528 34.447C23.6005 33.8307 21.7647 32.9579 20.07 31.852C19.9192 31.7532 19.7445 31.6971 19.5645 31.6896C19.3844 31.6821 19.2056 31.7235 19.0472 31.8095C18.8887 31.8954 18.7565 32.0227 18.6646 32.1777C18.5726 32.3327 18.5244 32.5098 18.525 32.69V43.5H8.525V34.5C8.525 34.2348 8.41965 33.9804 8.23211 33.7929C8.04457 33.6054 7.79022 33.5 7.525 33.5C7.25979 33.5 7.00543 33.6054 6.8179 33.7929C6.63036 33.9804 6.525 34.2348 6.525 34.5V39.5H4.525V31.5C4.505 30.432 5.438 29.5 6.525 29.5H19.825C20.033 29.5 20.238 29.565 20.405 29.685C23.869 32.135 28.062 33.515 32.325 33.5C32.938 33.405 33.322 33.9 33.799 34.42C33.911 34.991 33.349 35.488 32.755 35.5C30.305 35.536 27.866 35.193 25.528 34.447ZM44.475 51.5C44.452 52.814 42.498 52.814 42.475 51.5C42.498 50.186 44.452 50.186 44.475 51.5ZM60.475 41.5C60.475 42.603 59.578 43.5 58.475 43.5H28.475C27.373 43.5 26.475 42.603 26.475 41.5V36.781C28.389 37.253 30.349 37.5 32.325 37.5C33.777 37.628 35.218 36.793 35.66 35.466C37.001 35.732 38.216 34.828 38.71 34.175C39.46 33.26 40.148 33.26 40.898 34.175C42.238 35.932 44.701 35.93 46.038 34.175C46.789 33.259 47.48 33.261 48.231 34.175C49.563 35.926 52.041 35.932 53.376 34.177C53.818 33.695 54.016 33.5 54.476 33.5C55.784 33.48 55.794 31.522 54.476 31.5C53.118 31.5 52.416 32.266 51.902 32.824C51.462 33.304 51.264 33.5 50.804 33.5C50.344 33.5 50.147 33.305 49.704 32.823C49.192 32.265 48.49 31.5 47.134 31.5C45.778 31.5 45.074 32.266 44.564 32.824C44.123 33.304 43.926 33.5 43.468 33.5C43.01 33.5 42.813 33.305 42.373 32.824C41.861 32.266 41.159 31.5 39.803 31.5C38.447 31.5 37.747 32.266 37.235 32.824C36.689 33.475 36.207 33.703 35.572 33.331C35.08 32.033 33.694 31.381 32.325 31.501C30.325 31.493 28.345 31.196 26.475 30.545V11.5C26.475 10.397 27.373 9.5 28.475 9.5H58.475C59.578 9.5 60.475 10.397 60.475 11.5V41.5Z" fill="white"/>
<path d="M54.475 17.5C53.118 17.5 52.415 18.265 51.902 18.824C51.462 19.304 51.264 19.5 50.804 19.5C50.344 19.5 50.147 19.305 49.704 18.824C49.192 18.265 48.49 17.5 47.134 17.5C45.778 17.5 45.074 18.266 44.564 18.825C43.812 19.74 43.124 19.74 42.373 18.825C41.042 17.071 38.567 17.069 37.235 18.825C36.483 19.741 35.796 19.74 35.045 18.825C34.533 18.265 33.831 17.5 32.475 17.5C31.167 17.52 31.155 19.477 32.475 19.5C32.933 19.5 33.129 19.695 33.57 20.175C34.082 20.735 34.784 21.5 36.14 21.5C37.496 21.5 38.198 20.734 38.71 20.175C39.15 19.695 39.346 19.5 39.803 19.5C40.261 19.5 40.458 19.695 40.898 20.175C41.41 20.735 42.112 21.5 43.468 21.5C44.824 21.5 45.526 20.735 46.038 20.176C46.789 19.259 47.48 19.261 48.231 20.176C49.558 21.925 52.043 21.933 53.376 20.176C53.818 19.696 54.016 19.5 54.476 19.5C55.782 19.48 55.796 17.522 54.476 17.5H54.475ZM54.475 24.5C53.118 24.5 52.415 25.265 51.902 25.824C51.462 26.304 51.264 26.5 50.804 26.5C50.344 26.5 50.147 26.305 49.704 25.824C49.192 25.265 48.49 24.5 47.134 24.5C45.778 24.5 45.074 25.266 44.564 25.825C43.812 26.74 43.124 26.74 42.373 25.825C41.042 24.071 38.567 24.069 37.235 25.825C36.483 26.741 35.796 26.74 35.045 25.825C34.533 25.265 33.831 24.5 32.475 24.5C31.167 24.52 31.155 26.477 32.475 26.5C32.933 26.5 33.129 26.695 33.57 27.175C34.082 27.735 34.784 28.5 36.14 28.5C37.496 28.5 38.198 27.734 38.71 27.175C39.15 26.695 39.346 26.5 39.803 26.5C40.261 26.5 40.458 26.695 40.898 27.175C41.41 27.735 42.112 28.5 43.468 28.5C44.824 28.5 45.526 27.734 46.038 27.176C46.789 26.259 47.48 26.261 48.231 27.176C49.558 28.924 52.043 28.934 53.376 27.176C53.818 26.696 54.016 26.5 54.476 26.5C55.782 26.48 55.796 24.522 54.476 24.5H54.475Z" fill="white"/>
</svg>
